<svg width="136" height="120" viewBox="0 0 136 120" fill="none" xmlns="http://www.w3.org/2000/svg">
<path d="M117.265 96.7467C128.771 86.4721 135.827 72.6063 135.827 57.3491C135.827 25.6761 105.421 0 67.9134 0C30.4059 0 0 25.6761 0 57.3491C0 89.0221 30.4059 114.698 67.9134 114.698C78.554 114.698 88.6233 112.632 97.5888 108.948C108.12 115.448 121.024 120.121 135.274 119.136C127.746 117.222 121.27 109.47 117.265 96.7467Z" fill="white"/>
<path d="M117.717 57.349C117.717 80.6871 95.4189 99.6062 67.9134 99.6062C40.4078 99.6062 18.1102 80.6871 18.1102 57.349C18.1102 34.011 40.4078 15.0918 67.9134 15.0918C95.4189 15.0918 117.717 34.011 117.717 57.349Z" fill="#5F8BFF"/>
<path d="M99.6063 57.3491C99.6063 72.3522 85.4169 84.5144 67.9134 84.5144C50.4098 84.5144 36.2205 72.3522 36.2205 57.3491C36.2205 42.3459 50.4098 30.1837 67.9134 30.1837C85.4169 30.1837 99.6063 42.3459 99.6063 57.3491Z" fill="#0051E1"/>
<path d="M86 57.5C86 66.0605 77.9411 73 68 73C58.0589 73 50 66.0605 50 57.5C50 48.9395 58.0589 42 68 42C77.9411 42 86 48.9395 86 57.5Z" fill="#0051E1"/>
</svg>
