<svg width="192" height="192" viewBox="0 0 192 192" fill="none" xmlns="http://www.w3.org/2000/svg">
<path d="M156.866 142.282C171.504 129.211 180.48 111.57 180.48 92.16C180.48 51.8654 141.797 19.2 94.0801 19.2C46.3627 19.2 7.68005 51.8654 7.68005 92.16C7.68005 132.455 46.3627 165.12 94.0801 165.12C107.617 165.12 120.427 162.491 131.833 157.804C145.232 166.075 161.648 172.019 179.777 170.766C170.199 168.331 161.961 158.469 156.866 142.282Z" fill="#0560FD" fill-opacity="0.3"/>
<path d="M157.44 92.16C157.44 121.851 129.073 145.92 94.08 145.92C59.0872 145.92 30.72 121.851 30.72 92.16C30.72 62.4691 59.0872 38.4 94.08 38.4C129.073 38.4 157.44 62.4691 157.44 92.16Z" fill="#0560FD" fill-opacity="0.3"/>
<path d="M134.4 92.16C134.4 111.247 116.348 126.72 94.08 126.72C71.8119 126.72 53.76 111.247 53.76 92.16C53.76 73.0729 71.8119 57.6 94.08 57.6C116.348 57.6 134.4 73.0729 134.4 92.16Z" fill="#0560FD"/>
</svg>
