<svg width="48" height="48" viewBox="0 0 48 48" fill="#ffffff" xmlns="http://www.w3.org/2000/svg">
<g clip-path="url(#clip0_1_3)">
<path fill-rule="evenodd" clip-rule="evenodd" d="M12.9037 21.9053L26.7191 21.9067C27.5464 21.9053 28.2196 22.5785 28.2182 23.4058C28.2196 24.2331 27.5464 24.9063 26.7191 24.9049L13.1299 24.9063L5.54126 42.6151C5.28953 43.2005 5.43802 43.8808 5.90754 44.3107C6.37848 44.742 7.07003 44.8283 7.63006 44.5257L44.3996 24.7267C44.896 24.4594 45.2015 23.9361 45.1901 23.3733C45.1774 22.809 44.8493 22.2999 44.3416 22.0552L6.20877 3.61954C5.6247 3.33811 4.92466 3.46397 4.47353 3.93208C4.02523 4.40018 3.92623 5.10446 4.23311 5.67722L12.9037 21.9053Z"/>
</g>
<defs>
<clipPath id="clip0_1_3">
<rect width="48" height="48" fill="white"/>
</clipPath>
</defs>
</svg>
